<?xml version="1.0" encoding="UTF-8" standalone="no"?>
<svg
   xmlns:dc="http://purl.org/dc/elements/1.1/"
   xmlns:cc="http://creativecommons.org/ns#"
   xmlns:rdf="http://www.w3.org/1999/02/22-rdf-syntax-ns#"
   xmlns:svg="http://www.w3.org/2000/svg"
   xmlns="http://www.w3.org/2000/svg"
   xmlns:sodipodi="http://sodipodi.sourceforge.net/DTD/sodipodi-0.dtd"
   xmlns:inkscape="http://www.inkscape.org/namespaces/inkscape"
   id="MDN_Web_Docs"
   data-name="MDN Web Docs"
   viewBox="0 0 48 48"
   preserveAspectRatio="xMaxYMid"
   width="48"
   height="48"
   version="1.1"
   sodipodi:docname="MDN.svg"
   inkscape:version="0.92.4 (unknown)">
  <metadata
     id="metadata519">
    <rdf:RDF>
      <cc:Work
         rdf:about="">
        <dc:format>image/svg+xml</dc:format>
        <dc:type
           rdf:resource="http://purl.org/dc/dcmitype/StillImage" />
        <dc:title>MDN Web Docs</dc:title>
      </cc:Work>
    </rdf:RDF>
  </metadata>
  <sodipodi:namedview
     pagecolor="#ffffff"
     bordercolor="#666666"
     borderopacity="1"
     objecttolerance="10"
     gridtolerance="10"
     guidetolerance="10"
     inkscape:pageopacity="0"
     inkscape:pageshadow="2"
     inkscape:window-width="1536"
     inkscape:window-height="813"
     id="namedview517"
     showgrid="false"
     inkscape:snap-page="true"
     inkscape:zoom="2.8800879"
     inkscape:cx="143.02241"
     inkscape:cy="42.093933"
     inkscape:window-x="0"
     inkscape:window-y="27"
     inkscape:window-maximized="1"
     inkscape:current-layer="MDN_Web_Docs"
     inkscape:pagecheckerboard="true" />
  <defs
     id="defs508">
    <style
       id="style506">.cls-1{fill:#fff;}</style>
  </defs>
  <title
     id="title510">MDN Web Docs</title>
  <path
     d="M 6,6.0000015 H 42 V 41.999998 H 6 Z M 37.450827,22.530153 c -0.02853,-0.542748 -0.09158,-1.086997 -0.129118,-1.625991 -0.02102,-0.270247 -0.123113,-0.527733 -0.296522,-0.735674 C 36.821,19.91926 36.555256,19.727834 36.254981,19.612979 35.648425,19.377263 35.038867,19.114522 34.427056,18.880307 33.561512,18.585287 32.722994,18.216699 31.919758,17.776796 31.379262,17.46526 31.017431,16.916507 30.946115,16.29794 c -0.08032,-0.701893 -0.49095,-1.324213 -1.103511,-1.674034 -0.680874,-0.365585 -1.474352,-0.459421 -2.222037,-0.262741 -0.549504,0.132121 -1.126032,0.123113 -1.671782,-0.02477 l -0.834765,-0.255234 -0.226708,-0.06756 -0.6546,-0.195179 c -1.17858,-0.352823 -1.674035,-0.535991 -3.584536,-0.210192 -2.013345,0.457919 -3.856284,1.471348 -5.322378,2.926182 l -4.781883,5.074651 h 4.293936 l -2.630411,2.785053 h 4.523646 l -2.62966,2.785053 h 3.636333 l -1.162065,3.047793 c 4.45158,4.556677 9.195928,5.476269 9.195928,5.476269 0,-1.25515 0.285262,-6.184167 0.620069,-7.011426 0.125365,-0.412878 0.319042,-0.803236 0.572775,-1.154558 0.620068,-0.762699 1.561431,-1.193594 2.546334,-1.162065 0.978146,0 1.949537,0.177913 2.863124,0.526983 0.555509,0.231212 1.186087,0.19668 1.711569,-0.09233 0.379848,-0.225206 0.755943,-0.463925 1.12453,-0.705647 0.118609,-0.09459 0.266495,-0.141129 0.417383,-0.135124 0.405372,0.04504 0.791225,-0.177913 0.953374,-0.551005 0.12011,-0.247727 0.262741,-0.48044 0.39336,-0.728167 0.354325,-0.662858 0.517975,-1.411294 0.475937,-2.161982 z"
     id="path313"
     inkscape:connector-curvature="0"
     style="fill:#ffffff;stroke-width:0.75068808"
     sodipodi:nodetypes="ccccccccccccccccccccccccccccccccccccccc" />
</svg>
