<?xml version="1.0" encoding="UTF-8" standalone="no"?>
<!-- Created with Inkscape (http://www.inkscape.org/) -->

<svg
   xmlns:dc="http://purl.org/dc/elements/1.1/"
   xmlns:cc="http://creativecommons.org/ns#"
   xmlns:rdf="http://www.w3.org/1999/02/22-rdf-syntax-ns#"
   xmlns:svg="http://www.w3.org/2000/svg"
   xmlns="http://www.w3.org/2000/svg"
   xmlns:sodipodi="http://sodipodi.sourceforge.net/DTD/sodipodi-0.dtd"
   xmlns:inkscape="http://www.inkscape.org/namespaces/inkscape"
   width="48"
   height="48"
   viewBox="0 0 48 48.000002"
   version="1.1"
   id="svg386"
   inkscape:version="0.92.4 (unknown)"
   sodipodi:docname="GitHub.svg">
  <defs
     id="defs380" />
  <sodipodi:namedview
     id="base"
     pagecolor="#ffffff"
     bordercolor="#666666"
     borderopacity="1.0"
     inkscape:pageopacity="0.0"
     inkscape:pageshadow="2"
     inkscape:zoom="3.959798"
     inkscape:cx="50.332104"
     inkscape:cy="37.865053"
     inkscape:document-units="px"
     inkscape:current-layer="layer1"
     showgrid="false"
     units="px"
     borderlayer="true"
     inkscape:window-width="1536"
     inkscape:window-height="813"
     inkscape:window-x="0"
     inkscape:window-y="27"
     inkscape:window-maximized="1"
     inkscape:pagecheckerboard="true" />
  <metadata
     id="metadata383">
    <rdf:RDF>
      <cc:Work
         rdf:about="">
        <dc:format>image/svg+xml</dc:format>
        <dc:type
           rdf:resource="http://purl.org/dc/dcmitype/StillImage" />
        <dc:title></dc:title>
      </cc:Work>
    </rdf:RDF>
  </metadata>
  <g
     inkscape:label="Layer 1"
     inkscape:groupmode="layer"
     id="layer1"
     transform="translate(0,-1074.5197)">
    <path
       d="m 23.998301,1080.5197 c -10.189933,0 -18.453816,8.2628 -18.453816,18.4561 0,8.154 5.287571,15.0708 12.621286,17.5112 0.923371,0.1699 1.259863,-0.4 1.259863,-0.8894 0,-0.4385 -0.01586,-1.5986 -0.02492,-3.1383 -5.133486,1.1148 -6.216606,-2.4744 -6.216606,-2.4744 -0.83953,-2.1322 -2.049542,-2.6999 -2.049542,-2.6999 -1.675663,-1.1443 0.126892,-1.1216 0.126892,-1.1216 1.852406,0.1303 2.82676,1.9022 2.82676,1.9022 1.646206,2.82 4.320015,2.0054 5.371411,1.5329 0.16768,-1.1918 0.64466,-2.0054 1.171491,-2.4664 -4.097952,-0.4657 -8.406637,-2.0496 -8.406637,-9.1216 0,-2.0144 0.719436,-3.6629 1.89999,-4.9522 -0.190339,-0.4668 -0.823669,-2.3441 0.181275,-4.8842 0,0 1.548771,-0.4963 5.074573,1.8921 1.471728,-0.4102 3.051089,-0.6141 4.620251,-0.622 1.568032,0.01 3.146258,0.2118 4.620253,0.622 3.523536,-2.3884 5.07004,-1.8921 5.07004,-1.8921 1.00721,2.5401 0.37388,4.4174 0.184674,4.8842 1.182821,1.2893 1.896592,2.9378 1.896592,4.9522 0,7.0901 -4.315483,8.6502 -8.425898,9.1068 0.661654,0.5699 1.251932,1.6961 1.251932,3.4171 0,2.4676 -0.02266,4.4582 -0.02266,5.0632 0,0.494 0.333093,1.0684 1.268927,0.8883 7.328048,-2.4461 12.611088,-9.3584 12.611088,-17.5101 0,-10.1933 -8.263884,-18.4561 -18.457214,-18.4561"
       style="fill:#ffffff;fill-opacity:1;fill-rule:evenodd;stroke:none;stroke-width:0.11329699"
       id="path106"
       inkscape:connector-curvature="0" />
  </g>
</svg>
